<?xml version="1.0" encoding="UTF-8"?>
<svg id="Layer_1" xmlns="http://www.w3.org/2000/svg" xmlns:serif="http://www.serif.com/" version="1.1" viewBox="0 0 24.7 24.8">
  <!-- Generator: Adobe Illustrator 29.4.0, SVG Export Plug-In . SVG Version: 2.1.0 Build 152)  -->
  <defs>
    <style>
      .st0 {
        fill: #fff;
        fill-rule: evenodd;
      }

      .st1 {
        fill: #ea1515;
      }
    </style>
  </defs>
  <circle class="st1" cx="12.3" cy="12.4" r="12.3"/>
  <path class="st0" d="M12.3,1.3C6.2,1.3,1.2,6.3,1.2,12.4s5,11.2,11.2,11.2,11.2-5,11.2-11.2S18.5,1.3,12.3,1.3ZM22.6,13.8h-5.1l-1.2,3.4c0,.2-.2.3-.4.3-.2,0-.3-.1-.3-.3l-1.8-9.5-2.6,11.5c0,.2-.2.3-.4.3s-.3-.1-.4-.3l-1.8-8.2-1,2.5c0,.1-.2.2-.4.2H2c.7,5.1,5,9.1,10.3,9.1s9.7-4,10.3-9.1ZM22.7,13c0-.2,0-.4,0-.6,0-5.7-4.7-10.4-10.4-10.4S1.9,6.7,1.9,12.4s0,.4,0,.6h5.2l1.3-3.5c0-.2.2-.3.4-.2.2,0,.3.1.3.3l1.7,7.7,2.6-11.7c0-.2.2-.3.4-.3.2,0,.3.1.4.3l1.9,9.9.8-2.4c0-.2.2-.3.4-.3h5.4Z"/>
</svg>