<?xml version="1.0" encoding="UTF-8"?>
<svg id="Layer_1" data-name="Layer 1" xmlns="http://www.w3.org/2000/svg" viewBox="0 0 24.65 24.75">
  <defs>
    <style>
      .cls-1 {
        fill: #fff;
        fill-rule: evenodd;
      }

      .cls-2 {
        fill: #ff5349;
      }
    </style>
  </defs>
  <circle class="cls-2" cx="12.33" cy="12.42" r="12.33"/>
  <path class="cls-1" d="M12.33,1.25C6.16,1.25,1.16,6.26,1.16,12.42s5,11.17,11.17,11.17,11.17-5.01,11.17-11.17S18.49,1.25,12.33,1.25ZM22.64,13.77h-5.06l-1.24,3.44c-.05.16-.22.27-.39.25-.17-.01-.32-.14-.35-.31l-1.79-9.49-2.56,11.53c-.04.18-.19.3-.38.3s-.33-.13-.37-.3l-1.8-8.19-.98,2.53c-.06.15-.2.25-.36.25H2.01c.65,5.11,5.03,9.06,10.32,9.06s9.65-3.95,10.32-9.06ZM22.71,13c0-.19.02-.38.02-.57,0-5.74-4.66-10.4-10.4-10.4S1.93,6.68,1.93,12.42c0,.19,0,.38.02.57h5.17l1.35-3.48c.06-.16.22-.26.39-.24.17.01.31.14.35.3l1.69,7.74,2.58-11.66c.05-.18.2-.31.39-.3.18,0,.34.13.37.31l1.87,9.94.85-2.36c.06-.15.2-.25.36-.25h5.41Z"/>
</svg>